<svg xmlns="http://www.w3.org/2000/svg"  viewBox="0 0 50 50" width="1000px" height="1000px" baseProfile="basic"><polygon fill="#5cf275" points="39,16.917 29,6.525 19,5.37 12,9.411 8,18.649 12,32.34 22,42.898 32,44.053 39,40.011 43,30.773"/><polygon fill="#57e66f" points="12,9.412 19,5.37 29,6.525 22,10.566"/><polygon fill="#52d969" points="32,20.959 39,16.917 29,6.525 22,10.566"/><polygon fill="#44b356" points="32,44.053 39,40.011 43,30.774 36,34.815"/><polygon fill="#49bf5c" points="32,20.959 39,16.917 43,30.774 36,34.815"/><polygon fill="#e6e6e6" points="19,29.619 15,22.691 13,23.845 19,34.238 29,28.464 27,25"/><rect width="2.309" height="8" x="16.845" y="21.577" fill="#999" transform="rotate(-30 17.999 25.578)"/><rect width="2.309" height="4" x="27.845" y="24.155" fill="#999" transform="rotate(-30 28.998 26.156)"/></svg>